<svg width="114" height="114" viewBox="0 0 114 114" fill="none" xmlns="http://www.w3.org/2000/svg">
<mask id="mask0_10_912" style="mask-type:alpha" maskUnits="userSpaceOnUse" x="0" y="-1" width="114" height="115">
<rect y="56.5684" width="80" height="80" transform="rotate(-45 0 56.5684)" fill="#D9D9D9"/>
</mask>
<g mask="url(#mask0_10_912)">
<path d="M36.9453 66.881L43.486 64.2293C42.936 62.5794 42.445 60.9491 42.0129 59.3385C41.5807 57.7278 41.2075 56.0583 40.8933 54.3298L36.9453 56.9815L36.9453 66.881ZM50.2035 63.4043L63.5796 63.3454C64.601 61.067 65.4063 58.3367 65.9956 55.1548C66.5848 51.9728 66.8795 48.7319 66.8795 45.432C66.8795 39.9323 65.9759 34.7272 64.1689 29.8168C62.3618 24.9063 59.9459 21.1351 56.921 18.5031C53.8962 21.1351 51.4704 24.9161 49.6437 29.8462C47.817 34.7763 46.9037 39.9913 46.9037 45.491C46.9037 48.7908 47.1983 52.0317 47.7876 55.2137C48.3768 58.3957 49.1821 61.1259 50.2035 63.4043ZM56.8621 49.0854C55.0551 49.0854 53.4935 48.4274 52.1775 47.1114C50.8615 45.7954 50.2035 44.2339 50.2035 42.4268C50.2035 40.6198 50.8713 39.0484 52.207 37.7128C53.5426 36.3772 55.114 35.7093 56.921 35.7093C58.7281 35.7093 60.2896 36.3673 61.6056 37.6833C62.9216 38.9993 63.5796 40.5609 63.5796 42.3679C63.5796 44.175 62.9118 45.7463 61.5762 47.082C60.2405 48.4176 58.6692 49.0854 56.8621 49.0854ZM76.8968 66.881L76.8968 56.9815L72.9488 54.3298C72.6345 56.0583 72.2515 57.718 71.7997 59.309C71.348 60.9 70.8471 62.5205 70.2971 64.1704L76.8968 66.881ZM56.8621 9.95886C62.3618 13.9658 66.5259 19.053 69.3543 25.2206C72.1828 31.3881 73.597 38.5574 73.597 46.7284L80.6091 51.3835C81.5519 52.0121 82.2787 52.8174 82.7894 53.7995C83.3 54.7816 83.5554 55.8226 83.5554 56.9225L83.5554 76.7215L66.9973 70.0629L46.8448 70.0629L30.2867 76.7215L30.2278 56.9815C30.2278 55.8815 30.4929 54.8307 31.0232 53.8289C31.5536 52.8272 32.2901 52.0121 33.233 51.3835L40.2451 46.7284C40.2451 38.5574 41.6397 31.3881 44.4288 25.2206C47.218 19.053 51.3624 13.9658 56.8621 9.95886ZM46.9037 84.9711C46.9037 82.2212 47.8858 79.8446 49.85 77.8411C51.8141 75.8376 54.1712 74.8359 56.921 74.8359C59.6709 74.8359 62.0279 75.8376 63.9921 77.8411C65.9563 79.8446 66.9384 82.2212 66.9384 84.9711C66.9384 86.9353 66.1429 89.42 64.5519 92.4252C62.9609 95.4304 60.4173 99.2311 56.921 103.827C53.4248 99.2311 50.8812 95.4304 49.2902 92.4252C47.6992 89.42 46.9037 86.9353 46.9037 84.9711ZM53.5623 84.9122C53.5623 85.6978 53.8864 86.8076 54.5345 88.2415C55.1827 89.6753 55.9586 91.0011 56.8621 92.2189C57.7656 91.0011 58.5513 89.6851 59.2191 88.2709C59.887 86.8567 60.2209 85.7568 60.2209 84.9711C60.2209 84.0283 59.9066 83.2033 59.2781 82.4962C58.6495 81.7891 57.8638 81.4356 56.921 81.4356C55.9782 81.4356 55.1827 81.7793 54.5345 82.4668C53.8864 83.1542 53.5623 83.9694 53.5623 84.9122Z" fill="white"/>
</g>
</svg>
